<?xml version="1.0" encoding="UTF-8"?>
<svg xmlns="http://www.w3.org/2000/svg" fill="none">
  <symbol id="home" viewBox="0 0 48 48">
    <path
      d="M19.0954 38.2857V33.1744C19.0953 31.8744 20.1552 30.818 21.4684 30.8093H26.2785C27.5979 30.8093 28.6675 31.8682 28.6675 33.1744V38.3015C28.6672 39.4053 29.5571 40.3075 30.6717 40.3333H33.8785C37.0752 40.3333 39.6667 37.7678 39.6667 34.6031V20.0631C39.6496 18.818 39.0591 17.6489 38.0633 16.8884L27.0962 8.14217C25.1749 6.61928 22.4437 6.61928 20.5224 8.14217L9.60338 16.9043C8.60376 17.6617 8.01231 18.8328 8 20.0789V34.6031C8 37.7678 10.5915 40.3333 13.7882 40.3333H16.9949C18.1373 40.3333 19.0633 39.4166 19.0633 38.2857"
      stroke="#171717"
      stroke-width="2"
      stroke-linecap="round"
      stroke-linejoin="round"
    />
    <path
      d="M21 24H24H27"
      stroke="#171717"
      stroke-width="2"
      stroke-linecap="round"
    />
  </symbol>
  <symbol id="vila" viewBox="0 0 48 48">
    <mask
      id="path-1-outside-1_5249_7104"
      maskUnits="userSpaceOnUse"
      x="12"
      y="25"
      width="14"
      height="16"
      fill="black"
    >
      <rect fill="white" x="12" y="25" width="14" height="16" />
      <path
        d="M24.9848 32.2112C24.9848 34.7921 23.5121 36.2728 20.945 36.2728C20.9145 36.2728 20.8866 36.2728 20.8561 36.2702C20.686 36.2677 20.5489 36.1247 20.554 35.9511C20.5565 35.7801 20.7012 35.6371 20.8714 35.6473H20.945C23.9183 35.6473 24.3627 33.4953 24.3627 32.2112C24.3627 30.5748 23.2201 29.2013 21.6915 28.8592C21.4833 28.8107 21.27 28.7826 21.0491 28.7775C21.0059 28.558 20.9348 28.3487 20.8434 28.1521C20.4168 27.256 19.5078 26.6382 18.4592 26.6382C17.2455 26.6382 16.2196 27.4654 15.9149 28.5886C15.854 28.8056 15.821 29.0354 15.8185 29.2702C15.6052 29.3443 15.3995 29.4438 15.2091 29.5613C14.267 30.1357 13.6373 31.1772 13.6373 32.3669C13.6373 34.1769 15.1024 35.6473 16.9001 35.6473C16.9738 35.6473 17.0474 35.6448 17.1185 35.6397C17.2886 35.6269 17.4359 35.7597 17.4486 35.9307C17.4587 36.1018 17.3292 36.2498 17.1591 36.2626C17.0728 36.2677 16.989 36.2702 16.9001 36.2702C14.7571 36.2702 13.0152 34.519 13.0152 32.3643C13.0152 30.8122 13.9192 29.4694 15.2268 28.8388C15.4452 27.2433 16.8113 26.0102 18.4592 26.0102C19.876 26.0102 21.0821 26.9216 21.5315 28.1904C23.4841 28.4788 24.9848 30.1714 24.9848 32.2112ZM20.945 36.2856C20.9171 36.2856 20.8866 36.2856 20.8561 36.283C20.7698 36.2805 20.6885 36.2447 20.6301 36.1834C20.5717 36.1196 20.5387 36.0379 20.5413 35.9511C20.5438 35.7699 20.6936 35.6244 20.8714 35.6346H20.945C22.2171 35.6346 24.35 35.1904 24.35 32.2112C24.35 31.43 24.0808 30.6641 23.5908 30.0565C23.1083 29.4592 22.4329 29.0354 21.689 28.8694C21.4782 28.8209 21.2624 28.7929 21.0491 28.7877H21.0389L21.0364 28.7775C20.9958 28.5656 20.9272 28.3563 20.8307 28.1546C20.3965 27.2381 19.4647 26.6484 18.4592 26.6484C17.2785 26.6484 16.2374 27.4475 15.9251 28.5912C15.8642 28.8082 15.8311 29.0379 15.8286 29.2702V29.2805L15.821 29.283C15.6128 29.3545 15.4096 29.454 15.2141 29.5715C14.7444 29.8574 14.3534 30.2608 14.0791 30.7407C13.7973 31.2334 13.6475 31.795 13.6475 32.3669C13.6475 34.1692 15.105 35.6346 16.8976 35.6346C16.9636 35.6346 17.0347 35.632 17.1134 35.6269C17.121 35.6269 17.1287 35.6269 17.1363 35.6269C17.3039 35.6269 17.446 35.7597 17.4587 35.9307C17.4689 36.1094 17.3343 36.2651 17.1566 36.2779C17.0576 36.283 16.9763 36.2856 16.8976 36.2856C14.7495 36.2856 13 34.5266 13 32.3669C13 31.6138 13.2133 30.8837 13.617 30.2531C14.0106 29.6404 14.5616 29.1503 15.2141 28.8337C15.4401 27.2177 16.8316 26 18.4592 26C19.8379 26 21.0745 26.8756 21.5417 28.1802C22.4913 28.3206 23.3648 28.8005 24.0021 29.5332C24.6471 30.2761 25 31.2257 25 32.2086C24.9975 34.8023 23.5222 36.2856 20.945 36.2856ZM20.8561 35.6601C20.7012 35.6601 20.5717 35.7903 20.5667 35.9537C20.5641 36.0328 20.5946 36.1094 20.6479 36.1681C20.7038 36.2268 20.7774 36.2575 20.8561 36.26C20.8866 36.2626 20.9145 36.2626 20.945 36.2626C23.5044 36.2626 24.9721 34.787 24.9721 32.2137C24.9721 31.236 24.6191 30.2914 23.9793 29.5536C23.3445 28.8235 22.4761 28.3461 21.529 28.2082H21.5214L21.5188 28.2006C21.0592 26.9012 19.8303 26.0306 18.4592 26.0306C16.8443 26.0306 15.4604 27.2433 15.2395 28.849V28.8567L15.2344 28.8592C14.5844 29.1732 14.0334 29.6608 13.6424 30.271C13.2412 30.899 13.0279 31.624 13.0279 32.372C13.0279 34.519 14.7647 36.2651 16.9001 36.2651C16.9788 36.2651 17.0601 36.2626 17.1566 36.2575C17.3216 36.2447 17.446 36.1018 17.4359 35.9384C17.4232 35.7724 17.2835 35.6473 17.1185 35.6575C17.0372 35.6627 16.9661 35.6652 16.9001 35.6652C15.0948 35.6652 13.6246 34.1871 13.6246 32.372C13.6246 31.7976 13.7744 31.2309 14.0588 30.733C14.3356 30.2505 14.7292 29.8446 15.2014 29.5562C15.3944 29.4387 15.5975 29.3392 15.8058 29.2677C15.8083 29.0354 15.8413 28.8056 15.9022 28.5912C16.2171 27.4373 17.2683 26.6306 18.4592 26.6306C19.4748 26.6306 20.4143 27.2279 20.8536 28.1521C20.9501 28.3512 21.0186 28.5605 21.0592 28.7699C21.2725 28.775 21.4858 28.8031 21.694 28.8516C22.4431 29.0201 23.1236 29.4438 23.6085 30.0463C24.1011 30.659 24.3754 31.4274 24.3754 32.2163C24.3754 33.5055 23.9285 35.6652 20.945 35.6652H20.8714C20.8663 35.6627 20.8612 35.6601 20.8561 35.6601ZM21.4046 32.3286C21.2979 32.1805 21.0923 32.1448 20.945 32.252L19.3301 33.411V30.9577C19.3301 30.7739 19.1828 30.6258 19 30.6258C18.8172 30.6258 18.6699 30.7739 18.6699 30.9577V39.6681C18.6699 39.8519 18.8172 40 19 40C19.1828 40 19.3301 39.8519 19.3301 39.6681V34.2279L21.3284 32.7907C21.4757 32.6834 21.5112 32.4767 21.4046 32.3286Z"
      />
    </mask>
    <path
      d="M24.9848 32.2112C24.9848 34.7921 23.5121 36.2728 20.945 36.2728C20.9145 36.2728 20.8866 36.2728 20.8561 36.2702C20.686 36.2677 20.5489 36.1247 20.554 35.9511C20.5565 35.7801 20.7012 35.6371 20.8714 35.6473H20.945C23.9183 35.6473 24.3627 33.4953 24.3627 32.2112C24.3627 30.5748 23.2201 29.2013 21.6915 28.8592C21.4833 28.8107 21.27 28.7826 21.0491 28.7775C21.0059 28.558 20.9348 28.3487 20.8434 28.1521C20.4168 27.256 19.5078 26.6382 18.4592 26.6382C17.2455 26.6382 16.2196 27.4654 15.9149 28.5886C15.854 28.8056 15.821 29.0354 15.8185 29.2702C15.6052 29.3443 15.3995 29.4438 15.2091 29.5613C14.267 30.1357 13.6373 31.1772 13.6373 32.3669C13.6373 34.1769 15.1024 35.6473 16.9001 35.6473C16.9738 35.6473 17.0474 35.6448 17.1185 35.6397C17.2886 35.6269 17.4359 35.7597 17.4486 35.9307C17.4587 36.1018 17.3292 36.2498 17.1591 36.2626C17.0728 36.2677 16.989 36.2702 16.9001 36.2702C14.7571 36.2702 13.0152 34.519 13.0152 32.3643C13.0152 30.8122 13.9192 29.4694 15.2268 28.8388C15.4452 27.2433 16.8113 26.0102 18.4592 26.0102C19.876 26.0102 21.0821 26.9216 21.5315 28.1904C23.4841 28.4788 24.9848 30.1714 24.9848 32.2112ZM20.945 36.2856C20.9171 36.2856 20.8866 36.2856 20.8561 36.283C20.7698 36.2805 20.6885 36.2447 20.6301 36.1834C20.5717 36.1196 20.5387 36.0379 20.5413 35.9511C20.5438 35.7699 20.6936 35.6244 20.8714 35.6346H20.945C22.2171 35.6346 24.35 35.1904 24.35 32.2112C24.35 31.43 24.0808 30.6641 23.5908 30.0565C23.1083 29.4592 22.4329 29.0354 21.689 28.8694C21.4782 28.8209 21.2624 28.7929 21.0491 28.7877H21.0389L21.0364 28.7775C20.9958 28.5656 20.9272 28.3563 20.8307 28.1546C20.3965 27.2381 19.4647 26.6484 18.4592 26.6484C17.2785 26.6484 16.2374 27.4475 15.9251 28.5912C15.8642 28.8082 15.8311 29.0379 15.8286 29.2702V29.2805L15.821 29.283C15.6128 29.3545 15.4096 29.454 15.2141 29.5715C14.7444 29.8574 14.3534 30.2608 14.0791 30.7407C13.7973 31.2334 13.6475 31.795 13.6475 32.3669C13.6475 34.1692 15.105 35.6346 16.8976 35.6346C16.9636 35.6346 17.0347 35.632 17.1134 35.6269C17.121 35.6269 17.1287 35.6269 17.1363 35.6269C17.3039 35.6269 17.446 35.7597 17.4587 35.9307C17.4689 36.1094 17.3343 36.2651 17.1566 36.2779C17.0576 36.283 16.9763 36.2856 16.8976 36.2856C14.7495 36.2856 13 34.5266 13 32.3669C13 31.6138 13.2133 30.8837 13.617 30.2531C14.0106 29.6404 14.5616 29.1503 15.2141 28.8337C15.4401 27.2177 16.8316 26 18.4592 26C19.8379 26 21.0745 26.8756 21.5417 28.1802C22.4913 28.3206 23.3648 28.8005 24.0021 29.5332C24.6471 30.2761 25 31.2257 25 32.2086C24.9975 34.8023 23.5222 36.2856 20.945 36.2856ZM20.8561 35.6601C20.7012 35.6601 20.5717 35.7903 20.5667 35.9537C20.5641 36.0328 20.5946 36.1094 20.6479 36.1681C20.7038 36.2268 20.7774 36.2575 20.8561 36.26C20.8866 36.2626 20.9145 36.2626 20.945 36.2626C23.5044 36.2626 24.9721 34.787 24.9721 32.2137C24.9721 31.236 24.6191 30.2914 23.9793 29.5536C23.3445 28.8235 22.4761 28.3461 21.529 28.2082H21.5214L21.5188 28.2006C21.0592 26.9012 19.8303 26.0306 18.4592 26.0306C16.8443 26.0306 15.4604 27.2433 15.2395 28.849V28.8567L15.2344 28.8592C14.5844 29.1732 14.0334 29.6608 13.6424 30.271C13.2412 30.899 13.0279 31.624 13.0279 32.372C13.0279 34.519 14.7647 36.2651 16.9001 36.2651C16.9788 36.2651 17.0601 36.2626 17.1566 36.2575C17.3216 36.2447 17.446 36.1018 17.4359 35.9384C17.4232 35.7724 17.2835 35.6473 17.1185 35.6575C17.0372 35.6627 16.9661 35.6652 16.9001 35.6652C15.0948 35.6652 13.6246 34.1871 13.6246 32.372C13.6246 31.7976 13.7744 31.2309 14.0588 30.733C14.3356 30.2505 14.7292 29.8446 15.2014 29.5562C15.3944 29.4387 15.5975 29.3392 15.8058 29.2677C15.8083 29.0354 15.8413 28.8056 15.9022 28.5912C16.2171 27.4373 17.2683 26.6306 18.4592 26.6306C19.4748 26.6306 20.4143 27.2279 20.8536 28.1521C20.9501 28.3512 21.0186 28.5605 21.0592 28.7699C21.2725 28.775 21.4858 28.8031 21.694 28.8516C22.4431 29.0201 23.1236 29.4438 23.6085 30.0463C24.1011 30.659 24.3754 31.4274 24.3754 32.2163C24.3754 33.5055 23.9285 35.6652 20.945 35.6652H20.8714C20.8663 35.6627 20.8612 35.6601 20.8561 35.6601ZM21.4046 32.3286C21.2979 32.1805 21.0923 32.1448 20.945 32.252L19.3301 33.411V30.9577C19.3301 30.7739 19.1828 30.6258 19 30.6258C18.8172 30.6258 18.6699 30.7739 18.6699 30.9577V39.6681C18.6699 39.8519 18.8172 40 19 40C19.1828 40 19.3301 39.8519 19.3301 39.6681V34.2279L21.3284 32.7907C21.4757 32.6834 21.5112 32.4767 21.4046 32.3286Z"
      fill="#171717"
    />
    <path
      d="M24.9848 32.2112C24.9848 34.7921 23.5121 36.2728 20.945 36.2728C20.9145 36.2728 20.8866 36.2728 20.8561 36.2702C20.686 36.2677 20.5489 36.1247 20.554 35.9511C20.5565 35.7801 20.7012 35.6371 20.8714 35.6473H20.945C23.9183 35.6473 24.3627 33.4953 24.3627 32.2112C24.3627 30.5748 23.2201 29.2013 21.6915 28.8592C21.4833 28.8107 21.27 28.7826 21.0491 28.7775C21.0059 28.558 20.9348 28.3487 20.8434 28.1521C20.4168 27.256 19.5078 26.6382 18.4592 26.6382C17.2455 26.6382 16.2196 27.4654 15.9149 28.5886C15.854 28.8056 15.821 29.0354 15.8185 29.2702C15.6052 29.3443 15.3995 29.4438 15.2091 29.5613C14.267 30.1357 13.6373 31.1772 13.6373 32.3669C13.6373 34.1769 15.1024 35.6473 16.9001 35.6473C16.9738 35.6473 17.0474 35.6448 17.1185 35.6397C17.2886 35.6269 17.4359 35.7597 17.4486 35.9307C17.4587 36.1018 17.3292 36.2498 17.1591 36.2626C17.0728 36.2677 16.989 36.2702 16.9001 36.2702C14.7571 36.2702 13.0152 34.519 13.0152 32.3643C13.0152 30.8122 13.9192 29.4694 15.2268 28.8388C15.4452 27.2433 16.8113 26.0102 18.4592 26.0102C19.876 26.0102 21.0821 26.9216 21.5315 28.1904C23.4841 28.4788 24.9848 30.1714 24.9848 32.2112ZM20.945 36.2856C20.9171 36.2856 20.8866 36.2856 20.8561 36.283C20.7698 36.2805 20.6885 36.2447 20.6301 36.1834C20.5717 36.1196 20.5387 36.0379 20.5413 35.9511C20.5438 35.7699 20.6936 35.6244 20.8714 35.6346H20.945C22.2171 35.6346 24.35 35.1904 24.35 32.2112C24.35 31.43 24.0808 30.6641 23.5908 30.0565C23.1083 29.4592 22.4329 29.0354 21.689 28.8694C21.4782 28.8209 21.2624 28.7929 21.0491 28.7877H21.0389L21.0364 28.7775C20.9958 28.5656 20.9272 28.3563 20.8307 28.1546C20.3965 27.2381 19.4647 26.6484 18.4592 26.6484C17.2785 26.6484 16.2374 27.4475 15.9251 28.5912C15.8642 28.8082 15.8311 29.0379 15.8286 29.2702V29.2805L15.821 29.283C15.6128 29.3545 15.4096 29.454 15.2141 29.5715C14.7444 29.8574 14.3534 30.2608 14.0791 30.7407C13.7973 31.2334 13.6475 31.795 13.6475 32.3669C13.6475 34.1692 15.105 35.6346 16.8976 35.6346C16.9636 35.6346 17.0347 35.632 17.1134 35.6269C17.121 35.6269 17.1287 35.6269 17.1363 35.6269C17.3039 35.6269 17.446 35.7597 17.4587 35.9307C17.4689 36.1094 17.3343 36.2651 17.1566 36.2779C17.0576 36.283 16.9763 36.2856 16.8976 36.2856C14.7495 36.2856 13 34.5266 13 32.3669C13 31.6138 13.2133 30.8837 13.617 30.2531C14.0106 29.6404 14.5616 29.1503 15.2141 28.8337C15.4401 27.2177 16.8316 26 18.4592 26C19.8379 26 21.0745 26.8756 21.5417 28.1802C22.4913 28.3206 23.3648 28.8005 24.0021 29.5332C24.6471 30.2761 25 31.2257 25 32.2086C24.9975 34.8023 23.5222 36.2856 20.945 36.2856ZM20.8561 35.6601C20.7012 35.6601 20.5717 35.7903 20.5667 35.9537C20.5641 36.0328 20.5946 36.1094 20.6479 36.1681C20.7038 36.2268 20.7774 36.2575 20.8561 36.26C20.8866 36.2626 20.9145 36.2626 20.945 36.2626C23.5044 36.2626 24.9721 34.787 24.9721 32.2137C24.9721 31.236 24.6191 30.2914 23.9793 29.5536C23.3445 28.8235 22.4761 28.3461 21.529 28.2082H21.5214L21.5188 28.2006C21.0592 26.9012 19.8303 26.0306 18.4592 26.0306C16.8443 26.0306 15.4604 27.2433 15.2395 28.849V28.8567L15.2344 28.8592C14.5844 29.1732 14.0334 29.6608 13.6424 30.271C13.2412 30.899 13.0279 31.624 13.0279 32.372C13.0279 34.519 14.7647 36.2651 16.9001 36.2651C16.9788 36.2651 17.0601 36.2626 17.1566 36.2575C17.3216 36.2447 17.446 36.1018 17.4359 35.9384C17.4232 35.7724 17.2835 35.6473 17.1185 35.6575C17.0372 35.6627 16.9661 35.6652 16.9001 35.6652C15.0948 35.6652 13.6246 34.1871 13.6246 32.372C13.6246 31.7976 13.7744 31.2309 14.0588 30.733C14.3356 30.2505 14.7292 29.8446 15.2014 29.5562C15.3944 29.4387 15.5975 29.3392 15.8058 29.2677C15.8083 29.0354 15.8413 28.8056 15.9022 28.5912C16.2171 27.4373 17.2683 26.6306 18.4592 26.6306C19.4748 26.6306 20.4143 27.2279 20.8536 28.1521C20.9501 28.3512 21.0186 28.5605 21.0592 28.7699C21.2725 28.775 21.4858 28.8031 21.694 28.8516C22.4431 29.0201 23.1236 29.4438 23.6085 30.0463C24.1011 30.659 24.3754 31.4274 24.3754 32.2163C24.3754 33.5055 23.9285 35.6652 20.945 35.6652H20.8714C20.8663 35.6627 20.8612 35.6601 20.8561 35.6601ZM21.4046 32.3286C21.2979 32.1805 21.0923 32.1448 20.945 32.252L19.3301 33.411V30.9577C19.3301 30.7739 19.1828 30.6258 19 30.6258C18.8172 30.6258 18.6699 30.7739 18.6699 30.9577V39.6681C18.6699 39.8519 18.8172 40 19 40C19.1828 40 19.3301 39.8519 19.3301 39.6681V34.2279L21.3284 32.7907C21.4757 32.6834 21.5112 32.4767 21.4046 32.3286Z"
      stroke="#171717"
      stroke-width="0.8"
      mask="url(#path-1-outside-1_5249_7104)"
    />
    <path
      d="M32 11.8889V10C32 8.89543 32.8954 8 34 8V8C35.1046 8 36 8.89543 36 10V15"
      stroke="#171717"
      stroke-width="1.5"
    />
    <path
      d="M30.6717 40.3333C29.5571 40.3075 16.9949 40.3333 16.9949 40.3333H13.7882C10.5915 40.3333 8 37.7678 8 34.6031V20.0789C8.01231 18.8328 8.60376 17.6617 9.60338 16.9043L20.5224 8.14217C22.4437 6.61928 25.1749 6.61928 27.0962 8.14217L38.0633 16.8884C39.0591 17.6489 39.6496 18.818 39.6667 20.0631V34.6031C39.6667 37.7678 37.0752 40.3333 33.8785 40.3333H30.6717Z"
      stroke="#171717"
      stroke-width="2"
      stroke-linecap="round"
      stroke-linejoin="round"
    />
    <path
      d="M30.5 19C29.629 19 28.8642 19.5548 28.2136 20.3683C27.5629 21.1818 26.9999 22.2826 26.5267 23.5262C25.5803 26.0133 25 29.0674 25 31.4868C25 34.2769 27.2753 36.5569 30.1325 36.7383V39.6381C30.1325 39.6856 30.142 39.7327 30.1605 39.7766C30.1789 39.8205 30.206 39.8604 30.2401 39.894C30.2743 39.9276 30.3148 39.9543 30.3594 39.9725C30.4039 39.9906 30.4517 40 30.5 40C30.5483 40 30.596 39.9906 30.6406 39.9725C30.6852 39.9543 30.7257 39.9276 30.7599 39.894C30.794 39.8604 30.8211 39.8205 30.8395 39.7766C30.858 39.7327 30.8675 39.6856 30.8675 39.6381V36.7383C33.7247 36.5569 36 34.2769 36 31.4868C36 29.0401 35.4198 25.9853 34.4732 23.5049C33.9999 22.2647 33.4368 21.1688 32.7859 20.3596C32.135 19.5505 31.3698 19 30.5 19ZM30.5 19.7238C31.0475 19.7238 31.6326 20.0916 32.2098 20.8091C32.7869 21.5266 33.3297 22.5658 33.7852 23.7594C34.6962 26.1466 35.265 29.1543 35.265 31.4868C35.265 33.8749 33.3361 35.8349 30.8675 36.0132V33.8808L33.101 32.0302C33.1379 31.9996 33.1684 31.9621 33.1906 31.9199C33.2128 31.8778 33.2264 31.8317 33.2306 31.7843C33.2347 31.737 33.2293 31.6893 33.2148 31.6439C33.2002 31.5986 33.1767 31.5566 33.1456 31.5202C33.0829 31.4468 32.9931 31.4009 32.896 31.3927C32.8479 31.3886 32.7994 31.3939 32.7534 31.4083C32.7074 31.4227 32.6647 31.4458 32.6278 31.4764L30.8675 32.935V30.6046L33.101 28.7539C33.1756 28.6921 33.2222 28.6037 33.2306 28.5081C33.2389 28.4124 33.2084 28.3174 33.1457 28.244C33.0829 28.1706 32.9931 28.1247 32.896 28.1165C32.8479 28.1124 32.7995 28.1177 32.7535 28.132C32.7075 28.1463 32.6648 28.1695 32.6278 28.2001L30.8676 29.6586V27.395C30.8675 27.299 30.8288 27.207 30.7599 27.1391C30.691 27.0713 30.5975 27.0332 30.5 27.0332C30.4026 27.0332 30.3091 27.0713 30.2402 27.1392C30.1713 27.207 30.1326 27.299 30.1325 27.395V29.6586L28.3723 28.2001C28.2977 28.1383 28.2012 28.1082 28.1041 28.1164C28.007 28.1247 27.9173 28.1706 27.8545 28.244C27.7918 28.3174 27.7612 28.4124 27.7696 28.508C27.778 28.6037 27.8246 28.6921 27.8992 28.7539L30.1326 30.6045V32.9349L28.3724 31.4764C28.3354 31.4458 28.2928 31.4227 28.2468 31.4083C28.2007 31.3939 28.1523 31.3886 28.1042 31.3927C28.0071 31.4009 27.9174 31.4468 27.8546 31.5202C27.8235 31.5566 27.8 31.5986 27.7855 31.6439C27.7709 31.6892 27.7655 31.7369 27.7697 31.7843C27.7738 31.8317 27.7874 31.8777 27.8096 31.9199C27.8319 31.9621 27.8623 31.9996 27.8993 32.0302L30.1327 33.8807V36.0132C27.6641 35.8348 25.7353 33.8749 25.7353 31.4868C25.7353 29.183 26.304 26.1747 27.2152 23.7801C27.6708 22.5829 28.2138 21.5381 28.7912 20.8162C29.3686 20.0942 29.9537 19.7238 30.5 19.7238Z"
      fill="#171717"
      stroke="#171717"
      stroke-width="0.8"
    />
  </symbol>
  <symbol id="store" viewBox="0 0 48 48">
    <path
      fill-rule="evenodd"
      clip-rule="evenodd"
      d="M5 14.8082H5.17067C5.16687 14.7513 5.16687 14.6943 5.17067 14.6375V14.3528L5.256 14.1682L5.17067 14.3388V14.3528L5.03906 14.6375L5 14.8082ZM38.9579 7.84017L43.0005 14.3673V16.8973C42.9932 17.6644 42.7578 18.412 42.3243 19.045C41.8905 19.6785 41.2779 20.1686 40.5645 20.4526L40.3125 20.553V37.8778C40.3125 39.3138 39.1484 40.4778 37.7125 40.4778H10.6454C9.20943 40.4778 8.04537 39.3138 8.04537 37.8778V20.4708L7.79736 20.3689C7.09123 20.0788 6.48675 19.5862 6.06013 18.9532C5.63368 18.3204 5.404 17.5756 5.4 16.8125V14.8534L5.41967 14.7674L5.60432 14.3679L10.1923 7.78342L10.1937 7.78139C10.2753 7.66263 10.3849 7.56575 10.5128 7.49926C10.6406 7.43277 10.7829 7.39871 10.927 7.40006L38.1954 7.40006C38.3499 7.39996 38.5018 7.44058 38.6357 7.51782C38.7696 7.59506 38.8806 7.7063 38.9579 7.84017ZM35.2671 17.5389V15.0977L32.2982 9.1601H27.369L29.091 14.6983V17.5389C29.091 18.3579 29.4163 19.1433 29.9955 19.7224C30.5746 20.3016 31.36 20.6269 32.179 20.6269C32.998 20.6269 33.7835 20.3016 34.3626 19.7224C34.9417 19.1433 35.2671 18.3579 35.2671 17.5389ZM16.7198 9.1601L13.1334 15.1672V17.5389C13.1334 18.3692 13.4633 19.1655 14.0504 19.7526C14.6375 20.3397 15.4338 20.6696 16.2642 20.6696C17.0945 20.6696 17.8908 20.3397 18.4779 19.7526C19.065 19.1655 19.3949 18.3692 19.3949 17.5389V14.6107L21.0254 9.1601H16.7198ZM22.836 9.1601L21.0685 15.0516L21.1122 17.5425C21.1132 18.3602 21.4384 19.1442 22.0167 19.7224C22.5958 20.3016 23.3813 20.6269 24.2003 20.6269C25.0193 20.6269 25.8047 20.3016 26.3838 19.7224C26.9629 19.1433 27.2883 18.3579 27.2883 17.5389V15.0481L25.5219 9.1601H22.836ZM11.3619 9.1601L7.15653 15.1997L7.20271 16.862C7.20425 17.4187 7.42603 17.9521 7.81974 18.3458C8.21482 18.7409 8.75066 18.9629 9.30939 18.9629C9.86812 18.9629 10.404 18.7409 10.799 18.3458C11.1941 17.9508 11.4161 17.4149 11.4161 16.8562V14.5776L14.6666 9.1601H11.3619ZM19.8322 30.7604V38.7178H28.5683V30.7604C28.5683 29.4349 27.4938 28.3604 26.1683 28.3604H22.2322C20.9067 28.3604 19.8322 29.4349 19.8322 30.7604ZM30.3283 29.2003V38.7178H36.1524C37.4779 38.7178 38.5524 37.6433 38.5524 36.3178V20.7233L38.247 20.6489C37.7438 20.5265 37.2707 20.3031 36.8565 19.9923L36.5071 19.7302L36.2766 20.1012C35.8743 20.7489 35.3248 21.2926 34.6729 21.6881C34.021 22.0836 33.2849 22.3198 32.5246 22.3774C31.7642 22.435 31.001 22.3124 30.2969 22.0196C29.5928 21.7269 28.9678 21.2722 28.4724 20.6924L28.1703 20.3388L27.8659 20.6905C27.4108 21.2163 26.8479 21.638 26.2154 21.927C25.5829 22.2161 24.8957 22.3657 24.2003 22.3657C23.5049 22.3657 22.8176 22.2161 22.1851 21.927C21.5526 21.638 20.9898 21.2163 20.5346 20.6905L20.2302 20.3388L19.9281 20.6924C19.4328 21.2722 18.8077 21.7269 18.1036 22.0196C17.3995 22.3124 16.6363 22.435 15.8759 22.3774C15.1156 22.3198 14.3796 22.0836 13.7276 21.6881C13.0757 21.2926 12.5262 20.7489 12.1239 20.1012L11.8934 19.7302L11.544 19.9923C11.1298 20.3031 10.6567 20.5265 10.1535 20.6489L9.84807 20.7233V36.3178C9.84807 37.6433 10.9226 38.7178 12.2481 38.7178H18.0722V29.2003C18.0722 27.7644 19.2362 26.6003 20.6722 26.6003H27.7283C29.1643 26.6003 30.3283 27.7644 30.3283 29.2003ZM34.2018 9.1601L37.0271 14.4811V16.8989C37.0271 17.4576 37.2491 17.9934 37.6441 18.3885C38.0392 18.7836 38.5751 19.0055 39.1338 19.0056C39.4149 19.0056 39.6932 18.9494 39.9522 18.8403C40.2113 18.7312 40.4459 18.5713 40.6423 18.37C40.8386 18.1688 40.9926 17.9303 41.0954 17.6686C41.1974 17.4085 41.2468 17.1308 41.2405 16.8515V15.125L37.6974 9.1601H34.2018Z"
      fill="#171717"
    />
  </symbol>
  <symbol id="storeroom" viewBox="0 0 48 48">
    <path
      d="M30.6717 40.3333C29.5571 40.3075 16.9949 40.3333 16.9949 40.3333H13.7882C10.5915 40.3333 8 37.7678 8 34.6031V20.0789C8.01231 18.8328 8.60376 17.6617 9.60338 16.9043L20.5224 8.14217C22.4437 6.61928 25.1749 6.61928 27.0962 8.14217L38.0633 16.8884C39.0591 17.6489 39.6496 18.818 39.6667 20.0631V34.6031C39.6667 37.7678 37.0752 40.3333 33.8785 40.3333H30.6717Z"
      stroke="#171717"
      stroke-width="2"
      stroke-linecap="round"
      stroke-linejoin="round"
    />
    <rect
      x="15.4"
      y="29.9713"
      width="7.62857"
      height="7.62857"
      rx="1.6"
      stroke="#171717"
      stroke-width="1.2"
    />
    <rect
      x="25.0426"
      y="29.9713"
      width="7.62857"
      height="7.62857"
      rx="1.6"
      stroke="#171717"
      stroke-width="1.2"
    />
    <rect
      x="20.7574"
      y="20.4"
      width="7.62857"
      height="7.62857"
      rx="1.6"
      stroke="#171717"
      stroke-width="1.2"
    />
  </symbol>
  <symbol id="office" viewBox="0 0 48 48">
    <path
      d="M36.3848 22H31C30.4478 22 30 22.4478 30 23C30 23.5522 30.4478 24 31 24H36.3848C36.937 24 37.3848 23.5522 37.3848 23C37.3848 22.4478 36.937 22 36.3848 22Z"
      fill="#171717"
    />
    <path
      d="M36.3848 27.1885H31C30.4478 27.1885 30 27.6362 30 28.1885C30 28.7407 30.4478 29.1885 31 29.1885H36.3848C36.937 29.1885 37.3848 28.7407 37.3848 28.1885C37.3848 27.6362 36.937 27.1885 36.3848 27.1885Z"
      fill="#171717"
    />
    <path
      d="M41 39.5V18C41 15.7909 39.2091 14 37 14H27V41.5H39C40.1046 41.5 41 40.6046 41 39.5Z"
      stroke="#171717"
      stroke-width="1.6"
    />
    <path
      d="M10.9524 18H14.2085C14.7345 18 15.1609 17.5522 15.1609 17C15.1609 16.4478 14.7345 16 14.2085 16H10.9524C10.4264 16 10 16.4478 10 17C10 17.5522 10.4264 18 10.9524 18Z"
      fill="#171717"
    />
    <path
      d="M10.9524 25.3335H14.2085C14.7345 25.3335 15.1609 24.8857 15.1609 24.3335C15.1609 23.7812 14.7345 23.3335 14.2085 23.3335H10.9524C10.4264 23.3335 10 23.7812 10 24.3335C10 24.8857 10.4264 25.3335 10.9524 25.3335Z"
      fill="#171717"
    />
    <path
      d="M10.9524 32.6665H14.2085C14.7345 32.6665 15.1609 32.2188 15.1609 31.6665C15.1609 31.1143 14.7345 30.6665 14.2085 30.6665H10.9524C10.4264 30.6665 10 31.1143 10 31.6665C10 32.2188 10.4264 32.6665 10.9524 32.6665Z"
      fill="#171717"
    />
    <path
      d="M19.0686 18H22.3247C22.8507 18 23.2771 17.5522 23.2771 17C23.2771 16.4478 22.8507 16 22.3247 16H19.0686C18.5426 16 18.1162 16.4478 18.1162 17C18.1162 17.5522 18.5426 18 19.0686 18Z"
      fill="#171717"
    />
    <path
      d="M19.0686 25.3335H22.3247C22.8507 25.3335 23.2771 24.8857 23.2771 24.3335C23.2771 23.7812 22.8507 23.3335 22.3247 23.3335H19.0686C18.5426 23.3335 18.1162 23.7812 18.1162 24.3335C18.1162 24.8857 18.5426 25.3335 19.0686 25.3335Z"
      fill="#171717"
    />
    <path
      d="M19.0686 32.6665H22.3247C22.8507 32.6665 23.2771 32.2188 23.2771 31.6665C23.2771 31.1143 22.8507 30.6665 22.3247 30.6665H19.0686C18.5426 30.6665 18.1162 31.1143 18.1162 31.6665C18.1162 32.2188 18.5426 32.6665 19.0686 32.6665Z"
      fill="#171717"
    />
    <path
      d="M7.4336 9.94505L7 41.5H27V10C27 7.79086 25.2091 6 23 6H11.4332C9.24551 6 7.46365 7.75755 7.4336 9.94505Z"
      stroke="#171717"
      stroke-width="1.8"
    />
  </symbol>
  <symbol id="other" viewBox="0 0 48 48">
    <path
      d="M12 41L18.5803 41.5H20.2255H21.0481M31.7419 41.5H37.8227C38.0988 41.5 38.3227 41.2761 38.3227 41V16C38.3227 13.7909 36.5318 12 34.3226 12H16.6416C14.4325 12 12.6416 13.7909 12.6416 16V23.5M31.7419 41.5H31.4996H21.0481M31.7419 41.5H23.9996H20.9996H21.0481M31.7419 41.5H21.0481"
      stroke="#171717"
      stroke-width="1.8"
    />
    <path
      d="M24.0349 41.1053C23.2958 41.0881 14.9651 41.1053 14.9651 41.1053H12.8385C10.7185 41.1053 9 39.4039 9 37.3052V27.6734C9.00816 26.847 9.40039 26.0704 10.0633 25.5681L17.3043 19.7574C18.5784 18.7475 20.3897 18.7475 21.6638 19.7574L28.9367 25.5576C29.5971 26.0619 29.9887 26.8372 30 27.6629V37.3052C30 39.4039 28.2815 41.1053 26.1615 41.1053H24.0349Z"
      stroke="#171717"
      stroke-width="1.8"
      stroke-linecap="round"
      stroke-linejoin="round"
    />
    <path
      d="M16 34H19H22"
      stroke="#171717"
      stroke-width="1.8"
      stroke-linecap="round"
    />
  </symbol>
  <symbol id="close-eye" viewBox="0 0 24 24">
    <path
      d="M4 7.47656C7.2 14.4096 16.8 14.4096 20 7.47656"
      stroke="#171717"
      stroke-width="1.5"
      stroke-linecap="round"
      stroke-linejoin="round"
    />
    <path
      d="M6.86292 11.0156L4.00391 14.9446"
      stroke="#171717"
      stroke-width="1.5"
      stroke-linecap="round"
      stroke-linejoin="round"
    />
    <path
      d="M17.1445 11.0156L20.0025 14.9446"
      stroke="#171717"
      stroke-width="1.5"
      stroke-linecap="round"
      stroke-linejoin="round"
    />
    <path
      d="M12 12.6797V16.5457"
      stroke="#171717"
      stroke-width="1.5"
      stroke-linecap="round"
      stroke-linejoin="round"
    />
  </symbol>
  <symbol id="open-eye" viewBox="0 0 24 24">
    <path
      d="M4 12.7474C7.2 5.81337 16.8 5.81337 20 12.7474"
      stroke="#171717"
      stroke-width="1.5"
      stroke-linecap="round"
      stroke-linejoin="round"
    />
    <path
      fill-rule="evenodd"
      clip-rule="evenodd"
      d="M12.0034 16.4776C10.7314 16.4776 9.69141 15.4426 9.69141 14.1646C9.69141 12.8876 10.7314 11.8516 12.0034 11.8516C13.2764 11.8516 14.3164 12.8876 14.3164 14.1646C14.3164 15.4426 13.2764 16.4776 12.0034 16.4776Z"
      stroke="#171717"
      stroke-width="1.5"
      stroke-linecap="round"
      stroke-linejoin="round"
    />
  </symbol>
  <symbol id="simcard" viewBox="0 0 24 24">
    <path
      fill-rule="evenodd"
      clip-rule="evenodd"
      d="M7.96536 7.69239C7.47198 7.69239 7.07202 8.07504 7.07202 8.54708V18.1197C7.07202 18.5918 7.47198 18.9744 7.96536 18.9744H15.1121C15.6056 18.9744 16.0055 18.5918 16.0055 18.1197V11.2173C16.0055 10.9591 15.8835 10.7148 15.6737 10.5525L12.2203 7.88233C12.0613 7.75943 11.8631 7.69239 11.6587 7.69239H7.96536ZM6 8.54708C6 7.5086 6.87993 6.66675 7.96536 6.66675H11.6587C12.1084 6.66675 12.5444 6.81424 12.8941 7.08463L16.3475 9.75481C16.8092 10.1118 17.0775 10.6493 17.0775 11.2173V18.1197C17.0775 19.1582 16.1976 20 15.1121 20H7.96536C6.87993 20 6 19.1582 6 18.1197V8.54708Z"
      fill="#171717"
    />
    <path
      fill-rule="evenodd"
      clip-rule="evenodd"
      d="M6.92188 4.55555C6.92188 4.24873 7.16986 4 7.47575 4H12.7692C12.9977 4 13.2337 4.0752 13.3951 4.1355C13.5721 4.20156 13.7348 4.27937 13.8376 4.33131C13.9528 4.38949 14.053 4.45852 14.1398 4.52812L17.7912 7.45486C18.0302 7.6464 18.0691 7.99598 17.8782 8.23567C17.6872 8.47536 17.3387 8.5144 17.0997 8.32285L13.4483 5.39612C13.4067 5.36279 13.3709 5.33962 13.3393 5.32361C13.2554 5.28123 13.1326 5.22308 13.0087 5.17677C12.9469 5.15372 12.8911 5.13595 12.844 5.12441C12.8209 5.11873 12.8024 5.11519 12.7884 5.11316C12.7752 5.11123 12.7691 5.1111 12.7691 5.1111H7.47575C7.16986 5.1111 6.92188 4.86237 6.92188 4.55555Z"
      fill="#171717"
    />
  </symbol>
</svg>
